<svg id="md_logo" xmlns="http://www.w3.org/2000/svg" viewBox="0 0 200 94.99">
  <title>mkd-logo</title>
    <path id='outer' d="M153.65,7.36a40.14,40.14,0,0,1,0,80.27H46.35a40.14,40.14,0,0,1,0-80.27h107.3m0-4.76H46.35A44.89,44.89,0,0,0,1.45,47.49h0a44.9,44.9,0,0,0,44.9,44.9h107.3a44.9,44.9,0,0,0,44.9-44.9h0A44.89,44.89,0,0,0,153.65,2.6Z"/>
      <path id='m' d="M125.87,73.81l-2.48,13.94h-5.26l3.61-20.23a35,35,0,0,0,.52-5.48c0-4.54-2.89-6.19-5.78-6.19-5.16,0-12,5-13.83,15.17l-3,16.73H94.39L98,67.52A37.34,37.34,0,0,0,98.52,62c0-4.54-2.89-6.19-5.78-6.19-5.27,0-12,5.06-13.84,15.17l-3,16.73H70.65l4.44-24.67a66.34,66.34,0,0,0,1-10.53H81a59.9,59.9,0,0,1-.52,8.15c3-5.57,9.09-9.29,14.25-9.29,5.47,0,8.57,3.2,9.08,8.47v.51c3.72-5.88,9.5-9,14.76-9,6.4,0,9,4.65,9,9.6A100.09,100.09,0,0,1,125.87,73.81Z"/>
      <path id='d' d="M166.62,76.7a65.59,65.59,0,0,0-1.13,11h-4.85a37.46,37.46,0,0,1,.41-6.2,16.48,16.48,0,0,1-14,7.33c-9.8,0-14.86-8.77-13.31-19.2,1.55-10.73,9.7-18.27,19.09-18.27,5.47,0,10.43,3.2,11.77,7.64l5.88-33.24h5.27ZM153.1,55.64c-6.71,0-13,5.58-14.24,14.46s3.2,14.55,9.81,14.55S161.67,79,163,70.1,159.81,55.64,153.1,55.64Z"/>
</svg>
