<svg xmlns="http://www.w3.org/2000/svg" viewBox="0 0 99.13 49.29"><defs><style>.cls-1{fill:#333;}.cls-2{fill:#fff;}</style></defs><title>Asset 4</title><g id="Layer_2" data-name="Layer 2"><g id="Layer_1-2" data-name="Layer 1"><rect class="cls-1" width="99.13" height="49.29"/><path class="cls-2" d="M24.49,19h3.64L29,21a14.16,14.16,0,0,1,3.14-1.73,10.06,10.06,0,0,1,3.6-.61,5.5,5.5,0,0,1,3,.76,5.17,5.17,0,0,1,1.93,2A17.2,17.2,0,0,1,44,19.48a9.34,9.34,0,0,1,3.69-.83q6.09,0,6.08,7V38.27H49.33V26a3.27,3.27,0,0,0-.86-2.41,3.16,3.16,0,0,0-2.34-.87,7.57,7.57,0,0,0-2.54.47,10.47,10.47,0,0,0-2.47,1.26,5,5,0,0,1,.25,1.66v12.2H36.91V26a3.27,3.27,0,0,0-.86-2.41,3.16,3.16,0,0,0-2.34-.87,7.36,7.36,0,0,0-2.45.4A10.38,10.38,0,0,0,29,24.27v14H24.49Z"/><path class="cls-2" d="M59.34,36.2q-1.7-2.28-1.69-7.4A20.11,20.11,0,0,1,58.33,23a5.6,5.6,0,0,1,2.27-3.2,7.89,7.89,0,0,1,4.32-1,15.42,15.42,0,0,1,5.25,1V10.8h4.47V38.27H70.93l-.76-1.87a9.6,9.6,0,0,1-5.61,2.09A6,6,0,0,1,59.34,36.2Zm10.83-2.57V22.9c-.77-.26-1.44-.47-2-.61a7.46,7.46,0,0,0-1.88-.22,4.72,4.72,0,0,0-2.48.56,3.25,3.25,0,0,0-1.31,2,14.71,14.71,0,0,0-.42,4,13.91,13.91,0,0,0,.4,3.8,3.34,3.34,0,0,0,1.24,1.92,4,4,0,0,0,2.32.58A8.35,8.35,0,0,0,70.17,33.63Z"/></g></g></svg>