<svg id="Layer_1" data-name="Layer 1" xmlns="http://www.w3.org/2000/svg" viewBox="0 0 200 200">
  <defs>
    <style>
      .cls-1 {
        fill: #fffff8;
      }
    </style>
  </defs>
  <title>Artboard 5 copy 4md</title>
  <rect class="cls-1" width="200" height="200" rx="15"/>
  <g>
    <path d="M91.78,143,97,113.86a47.55,47.55,0,0,0,.71-7.37c0-6.79-4.86-7.52-7-7.52-9.38,0-16.32,10.36-18.09,20.11l-4.29,24H59l5.2-29.17a51,51,0,0,0,.69-7.37C64.88,99.7,60,99,57.93,99c-7.15,0-15.66,6.91-18.07,20.11l-4.29,24H26.2l6.34-35.3a90.18,90.18,0,0,0,1.4-14.35v-1h8.79v1c0,1.54,0,4.22-.26,7.11,4.61-5.82,11.76-9.72,18.17-9.72,7.26,0,11.92,3.74,13.29,10.58,5-6.57,12.45-10.58,19.65-10.58,9.91,0,13.44,7.38,13.44,14.29,0,3.29-1.19,11.9-2.3,17.88L101.15,143Z"/>
    <path d="M132.91,144.59a18.43,18.43,0,0,1-14.42-6.3c-4.44-5.13-6.26-12.93-5-21.4,2.17-15.13,13.69-26.12,27.39-26.12,6.58,0,12.78,3.26,15.82,8.14l7.69-43.5h9.4l-.24,1.24L161,126.92A89,89,0,0,0,159.47,142v1H150.7v-1c0-1.47,0-3.34.14-5.05A23.79,23.79,0,0,1,132.91,144.59Zm8.41-45.91c-9.26,0-17.1,8-18.64,19.07-.92,6.11.21,11.37,3.18,14.82a11.9,11.9,0,0,0,9.33,4.11c9.21,0,17.11-8.08,18.79-19.22.85-6.1-.3-11.33-3.25-14.72A12.06,12.06,0,0,0,141.32,98.68Z"/>
  </g>
</svg>
