<svg id="Layer_1" data-name="Layer 1" xmlns="http://www.w3.org/2000/svg" viewBox="0 0 200 200">
  <defs>
    <style>
      .cls-1 {
        fill: #fffff8;
      }
    </style>
  </defs>
  <title>Artboard 5 copy 4md</title>
  <rect class="cls-1" width="200" height="200" rx="10"/>
  <g>
    <path d="M140.83,69.46a30.54,30.54,0,0,1,0,61.08H59.17a30.54,30.54,0,0,1,0-61.08h81.66m0-3.63H59.17A34.17,34.17,0,0,0,25,100h0a34.17,34.17,0,0,0,34.17,34.17h81.66A34.17,34.17,0,0,0,175,100h0a34.17,34.17,0,0,0-34.17-34.17Z"/>
    <g>
      <path d="M113.12,130.85,116,114.77a26.15,26.15,0,0,0,.39-4.06c0-3.74-2.68-4.14-3.83-4.14-5.16,0-9,5.71-10,11.08l-2.37,13.2H95.05l2.86-16.08a27.76,27.76,0,0,0,.39-4.06c0-3.74-2.68-4.14-3.83-4.14-3.94,0-8.63,3.8-10,11.08l-2.36,13.2H77l3.5-19.46a50.14,50.14,0,0,0,.77-7.9v-.57h4.84v.57c0,.84,0,2.32-.14,3.92,2.54-3.21,6.48-5.36,10-5.36,4,0,6.57,2.06,7.32,5.83a14.12,14.12,0,0,1,10.83-5.83c5.46,0,7.41,4.07,7.41,7.87a77.86,77.86,0,0,1-1.27,9.85l-2,11.08Z"/>
      <path d="M135.78,131.71a10.18,10.18,0,0,1-8-3.48c-2.44-2.82-3.44-7.12-2.75-11.79,1.2-8.34,7.55-14.39,15.1-14.39a10.35,10.35,0,0,1,8.71,4.49l4.24-24h5.18l-.13.69L151.27,122a48.85,48.85,0,0,0-.86,8.3v.58h-4.83v-.58c0-.8,0-1.83.08-2.78A13.11,13.11,0,0,1,135.78,131.71Zm4.63-25.3c-5.1,0-9.42,4.42-10.27,10.51-.51,3.36.12,6.26,1.76,8.16a6.54,6.54,0,0,0,5.13,2.26c5.08,0,9.44-4.45,10.36-10.58.47-3.37-.17-6.25-1.79-8.12A6.67,6.67,0,0,0,140.41,106.41Z"/>
    </g>
  </g>
</svg>
