<svg xmlns="http://www.w3.org/2000/svg" viewBox="0 0 50 50"><title>Asset 3</title><g id="Layer_2" data-name="Layer 2"><g id="Layer_1-2" data-name="Layer 1"><path d="M36.09,24.85a3.24,3.24,0,0,0-1.44,1.27,3.51,3.51,0,0,0-.52,1.93,3.29,3.29,0,0,0,.46,1.73A3.54,3.54,0,0,0,35.84,31a5.3,5.3,0,0,0,1.46.54,7.54,7.54,0,0,0,1.66.18h.24c0-.08,0-.58,0-1.5s0-2.2,0-3.86V24.26a10.13,10.13,0,0,0-1.68.13A5,5,0,0,0,36.09,24.85Z"/><path d="M40,0H10A10,10,0,0,0,0,10V40A10,10,0,0,0,10,50H40A10,10,0,0,0,50,40V10A10,10,0,0,0,40,0ZM23.81,34.22c0-.37,0-.95,0-1.75s0-1.69,0-2.66V28.07c0-.77,0-1.37,0-1.8a2.81,2.81,0,0,0-.43-1.7,1.56,1.56,0,0,0-1.28-.49,4.13,4.13,0,0,0-1.29.24,8.4,8.4,0,0,0-1.52.7v.63c0,.65,0,1.31,0,2s0,1.24,0,1.76c0,1.1,0,2.11,0,3s0,1.53,0,1.81H15.45c0-.22,0-.72,0-1.5s0-1.74,0-2.88c0-.42,0-1,0-1.78s0-1.36,0-1.76a7.53,7.53,0,0,0-.07-.83,1.92,1.92,0,0,0-.22-.7,1.37,1.37,0,0,0-.49-.52,1.89,1.89,0,0,0-.9-.17,3.31,3.31,0,0,0-1.31.31,11.33,11.33,0,0,0-1.52.76c0,.08,0,.6,0,1.56s0,1.71,0,2.25c0,.91,0,1.93,0,3.07s0,1.87,0,2.19H7.08c0-.41,0-1.11,0-2.1s0-2.37,0-4.16c0-.73,0-1.67,0-2.81s0-2.44,0-3.87H10.9l0,1.25,0,0a13.61,13.61,0,0,1,2.1-1A6.51,6.51,0,0,1,15.46,21a4,4,0,0,1,2,.46,3.16,3.16,0,0,1,1.27,1.21h0a14,14,0,0,1,2.52-1.18A7.65,7.65,0,0,1,23.81,21,3.76,3.76,0,0,1,26.66,22a4,4,0,0,1,1,2.85c0,1,0,1.77,0,2.4s0,1.25,0,1.85c0,1.15,0,2.19,0,3.12s0,1.59,0,2ZM42.9,30.7c0,1.46,0,2.67,0,3.64H41a29.37,29.37,0,0,1-4.33-.25,9.63,9.63,0,0,1-2.88-.86A6.41,6.41,0,0,1,31.15,31a5.53,5.53,0,0,1-.91-3.14,5.7,5.7,0,0,1,1-3.29,6.47,6.47,0,0,1,3-2.3,11.15,11.15,0,0,1,2.33-.69,18.32,18.32,0,0,1,2.51-.27l0-5.69h3.89c0,.24,0,1.32,0,3.24s0,4.08,0,6.49C42.88,27.46,42.89,29.24,42.9,30.7Z"/></g></g></svg>